<?xml version="1.0" encoding="UTF-8"?>
<svg width="607px" height="303px" viewBox="0 0 607 303" version="1.1" xmlns="http://www.w3.org/2000/svg" xmlns:xlink="http://www.w3.org/1999/xlink">
    <!-- Generator: Sketch 53.2 (72643) - https://sketchapp.com -->
    <title>COUNTRY RGB</title>
    <desc>Created with Sketch.</desc>
    <g id="Page-1" stroke="none" stroke-width="1" fill="none" fill-rule="evenodd">
        <g id="COUNTRY-RGB" fill="#655F57">
            <path d="M127.637,124.124 C104.752,124.124 86.828,142.133 86.828,165.132 C86.828,187.97 104.625,205.854 127.344,205.854 C150.309,205.854 168.299,187.838 168.299,164.832 C168.299,142 150.436,124.124 127.637,124.124 M127.637,194.304 C112.058,194.304 99.843,181.356 99.843,164.832 C99.843,148.121 111.665,135.512 127.344,135.512 C143.003,135.512 155.278,148.527 155.278,165.132 C155.278,181.769 143.402,194.304 127.637,194.304" id="Fill-1"></path>
            <path d="M64.206,187.027 C61.947,187.027 59.79,187.7 57.752,189.052 C52.949,192.742 47.947,194.307 41.027,194.307 C25.529,194.307 13.386,181.359 13.386,164.835 C13.386,148.396 25.202,135.508 40.295,135.508 C44.025,135.508 47.422,136.188 50.685,137.573 C52.43,138.313 54.029,139.379 55.567,140.397 C56.18,140.803 56.793,141.21 57.405,141.596 C58.871,142.508 60.476,142.982 62.201,142.982 C66.277,142.982 69.881,140.397 71.246,139.285 L72.178,138.526 L71.339,137.66 C65.344,131.352 56.4,124.119 40.428,124.119 C17.969,124.119 0.365,142.13 0.365,165.128 C0.365,187.966 17.969,205.856 40.428,205.856 C56.54,205.856 65.731,197.99 71.945,191.136 L72.804,190.191 L71.745,189.471 C70.666,188.732 67.776,187.027 64.206,187.027" id="Fill-2"></path>
            <path d="M360.305,127.424 C361.271,129.721 365.087,137.221 373.819,137.221 L392.468,137.221 L392.468,204.731 L404.537,204.731 L404.537,137.221 L433.843,137.221 L433.843,125.885 L359.652,125.885 L360.305,127.424" id="Fill-3"></path>
            <path d="M604.634,124.631 C601.964,123.985 593.684,123.086 587.35,132.284 C580.843,141.735 570.14,157.381 567.635,161.037 C565.624,157.973 558.171,146.671 550.245,135.241 C543.918,126.109 537.024,124.744 533.481,124.744 C532.288,124.744 531.369,124.89 530.817,125.01 L529.192,125.357 L561.488,172.54 L561.488,204.563 L573.55,204.563 L573.55,172.433 L606.213,125.01 L604.634,124.631" id="Fill-4"></path>
            <path d="M241.985,171.14 C241.985,184.76 232.546,194.651 219.551,194.651 C206.624,194.651 198.904,186.199 198.904,172.039 L198.904,136.253 C198.904,129.166 192.95,126.175 187.382,125.736 L186.19,125.642 L186.19,174.87 C186.19,194.279 197.712,206.341 216.275,206.341 C231.414,206.341 238.641,199.84 242.004,194.605 C242.144,198.474 243.563,201.312 246.2,203.03 C248.531,204.543 251.256,204.768 252.688,204.768 C252.987,204.768 253.247,204.756 253.493,204.749 L254.552,204.702 L254.552,125.889 L241.985,125.889 L241.985,171.14" id="Fill-5"></path>
            <path d="M320.029,124.785 C304.883,124.785 297.663,130.78 294.306,136.021 C294.154,132.145 292.741,129.314 290.09,127.59 C287.773,126.078 285.042,125.851 283.616,125.851 C283.277,125.851 282.997,125.858 282.784,125.878 L281.745,125.944 L281.745,204.731 L294.32,204.731 L294.32,159.993 C294.32,146.365 303.751,136.474 316.752,136.474 C329.68,136.474 337.4,144.933 337.4,159.1 L337.4,194.187 C337.4,201.281 343.347,204.271 348.922,204.697 L350.114,204.791 L350.114,156.262 C350.114,136.854 338.585,124.785 320.029,124.785" id="Fill-6"></path>
            <path d="M293.616,78.09 C283.612,78.09 278.497,72.689 278.397,62.046 L278.397,54.08 L281.014,54.073 C290.999,54.073 296.081,59.462 296.187,70.105 L296.18,78.071 L293.616,78.09" id="Fill-7"></path>
            <path d="M304.505,55.605 L304.505,67.501 C304.505,77.085 297.625,84.804 288.1,85.95 L287.94,85.964 C284.63,86.21 283.338,88.961 282.998,89.834 L282.718,90.579 L285.729,90.579 C298.757,90.579 308.974,80.442 308.974,67.494 L308.974,55.605 L304.505,55.605" id="Fill-8"></path>
            <polygon id="Fill-9" points="168.03 270.114 438.285 270.114 438.285 269.261 168.03 269.261"></polygon>
            <path d="M326.301,0.811 C324.796,0.811 323.191,0.765 321.499,0.765 C316.31,0.765 308.85,1.038 302.317,3.216 C306.446,7.366 308.97,13.107 308.97,19.541 L308.97,51.817 C319.614,50.692 327.906,39.875 327.906,28.919 L327.92,28.919 L327.92,0.839 C327.56,0.839 326.66,0.811 326.301,0.811" id="Fill-10"></path>
            <path d="M294.244,2.813 C291.826,1.588 289.116,0.861 286.225,0.822 L285.519,0.822 L285.519,12.045 C287.73,8.408 290.714,5.258 294.244,2.813" id="Fill-11"></path>
            <path d="M303.258,12.797 L303.271,12.797 C302.166,9.9 300.361,7.37 298.036,5.398 C290.61,9.88 285.661,17.766 285.535,26.771 L285.521,26.771 L285.521,30.887 L285.528,30.887 C285.621,41.784 293.9,50.722 304.504,51.828 L304.504,19.578 C304.504,17.173 304.064,14.889 303.258,12.797" id="Fill-12"></path>
            <path d="M525.465,194.038 C524.692,194.404 520.576,196.268 516.966,196.268 C507.315,196.268 502.659,188.229 496.858,179.871 C496.045,178.692 495.233,177.526 494.413,176.374 C493.601,175.248 492.748,174.069 491.869,172.871 L492.222,172.871 C502.879,172.571 506.116,169.281 509.253,166.084 L509.659,165.677 C513.769,161.514 515.94,155.933 515.933,149.525 C515.94,142.432 513.096,136.158 507.921,131.876 C502.766,127.586 495.539,125.321 487.034,125.321 L453.006,125.321 L453.006,204.867 L464.961,204.867 L464.961,136.651 L486.414,136.651 C491.956,136.651 496.472,137.896 499.475,140.248 C502.366,142.525 503.851,145.749 503.864,149.839 C503.851,154.054 502.246,157.445 499.103,159.929 C495.959,162.386 491.536,163.685 486.288,163.685 L475.971,163.685 C475.971,163.685 473.932,163.713 473.84,163.713 C473.653,163.713 473.347,163.739 473.347,163.739 C472.441,163.866 471.755,164.438 471.535,165.251 C471.328,166.03 471.588,166.883 472.161,167.336 C477.376,171.425 481.519,177.193 485.522,182.774 C486.588,184.254 487.627,185.812 488.686,187.377 C494.673,196.249 500.841,206.026 512.53,206.026 L512.783,206.026 C519.637,205.96 525.178,200.672 525.465,194.038" id="Fill-13"></path>
            <path d="M220.846,301.856 L214.752,301.856 C214.618,301.856 214.479,301.743 214.479,301.59 L214.479,286.81 C214.479,286.657 214.618,286.517 214.752,286.517 L219.588,286.517 C220.78,286.517 222.058,286.677 223.117,287.423 C224.036,288.049 224.689,289.042 224.689,290.414 C224.689,292.058 223.93,293.184 222.691,293.751 L222.691,293.837 C224.869,294.27 225.948,295.709 225.948,297.733 C225.948,300.597 223.41,301.856 220.846,301.856 M221.206,288.995 C220.753,288.702 220.194,288.569 219.608,288.569 L216.997,288.569 L216.997,293.051 L219.381,293.051 C219.967,293.051 220.6,293.005 221.093,292.758 C221.699,292.445 222.152,291.812 222.152,290.82 C222.152,289.941 221.765,289.354 221.206,288.995 M222.172,295.435 C221.633,295.142 220.913,295.076 219.767,295.076 L216.997,295.076 L216.997,299.804 L220.307,299.804 C220.933,299.804 221.519,299.738 222.012,299.539 C222.824,299.199 223.384,298.546 223.384,297.421 C223.384,296.588 223.004,295.841 222.172,295.435" id="Fill-14"></path>
            <path d="M241.555,286.812 C241.668,286.633 241.781,286.519 242.001,286.519 L244.272,286.519 C244.566,286.519 244.612,286.746 244.479,286.972 L238.697,295.304 L238.697,301.585 C238.697,301.745 238.564,301.858 238.404,301.858 L236.446,301.858 C236.293,301.858 236.18,301.745 236.18,301.585 L236.18,295.304 L230.425,286.972 C230.266,286.746 230.312,286.519 230.625,286.519 L232.85,286.519 C233.096,286.519 233.209,286.612 233.322,286.812 L237.439,292.799 L241.555,286.812" id="Fill-15"></path>
            <path d="M267.593,295.978 L271.349,301.386 C271.483,301.606 271.529,301.853 271.21,301.853 L269.031,301.853 C268.785,301.853 268.625,301.813 268.492,301.566 L264.869,296.205 L261.499,296.205 L261.499,301.587 C261.499,301.747 261.365,301.853 261.233,301.853 L259.247,301.853 C259.114,301.853 258.981,301.747 258.981,301.587 L258.981,286.813 C258.981,286.654 259.114,286.52 259.247,286.52 L265.569,286.52 C267.053,286.52 268.359,286.747 269.371,287.466 C270.49,288.279 271.17,289.625 271.17,291.363 C271.17,292.915 270.564,294.18 269.411,295.052 C268.832,295.525 268.246,295.799 267.593,295.978 M261.499,288.659 L261.499,294.087 L265.142,294.087 C266.108,294.087 266.874,293.994 267.507,293.614 C268.153,293.234 268.606,292.508 268.606,291.383 C268.606,290.277 268.199,289.557 267.547,289.151 C266.941,288.752 266.174,288.659 265.342,288.659 L261.499,288.659" id="Fill-16"></path>
            <path d="M279.467,301.564 C279.4,301.763 279.26,301.857 279.014,301.857 L277.082,301.857 C276.903,301.857 276.836,301.763 276.836,301.65 C276.836,301.584 276.856,301.517 276.883,301.43 L282.41,286.744 C282.477,286.545 282.617,286.451 282.837,286.451 L284.908,286.451 C285.154,286.451 285.268,286.545 285.355,286.744 L290.823,301.43 C290.842,301.497 290.889,301.584 290.889,301.65 C290.889,301.763 290.823,301.857 290.616,301.857 L288.638,301.857 C288.392,301.857 288.258,301.763 288.192,301.564 L287.046,298.407 L280.633,298.407 L279.467,301.564 Z M283.849,289.515 L281.265,296.382 L286.414,296.382 L283.849,289.515 L283.849,289.515 Z" id="Fill-17"></path>
            <path d="M307.395,300.754 C305.863,301.606 304.112,301.859 302.38,301.859 L297.071,301.859 C296.939,301.859 296.805,301.746 296.805,301.586 L296.805,286.813 C296.805,286.653 296.939,286.52 297.071,286.52 L302.693,286.52 C305.144,286.52 307.349,287.08 309.034,288.904 C310.139,290.103 310.859,291.835 310.859,294.199 C310.859,297.037 309.753,299.427 307.395,300.754 M299.323,299.741 L302.18,299.741 C303.506,299.741 304.744,299.541 305.73,299.021 C307.462,298.142 308.294,296.404 308.294,294.199 C308.294,292.467 307.821,291.202 307.016,290.323 C305.957,289.177 304.338,288.658 302.333,288.658 L299.323,288.658 L299.323,299.741" id="Fill-18"></path>
            <path d="M320.077,286.52 C320.21,286.52 320.343,286.654 320.343,286.813 L320.343,301.587 C320.343,301.746 320.21,301.859 320.077,301.859 L318.099,301.859 C317.959,301.859 317.826,301.746 317.826,301.587 L317.826,286.813 C317.826,286.654 317.959,286.52 318.099,286.52 L320.077,286.52" id="Fill-19"></path>
            <path d="M327.294,300.64 C327.134,300.548 327.094,300.414 327.181,300.261 L327.966,298.59 C328.04,298.456 328.147,298.389 328.326,298.503 C329.319,299.109 330.664,299.922 332.576,299.922 C333.522,299.922 334.241,299.695 334.714,299.336 C335.3,298.909 335.546,298.276 335.546,297.596 C335.546,296.564 334.714,295.978 333.615,295.552 C332.329,295.033 330.824,294.786 329.385,293.973 C328.147,293.274 327.274,292.308 327.274,290.577 C327.274,289.311 327.767,288.232 328.733,287.486 C329.678,286.747 331.07,286.314 332.916,286.314 C335.007,286.314 336.579,286.881 337.591,287.446 C337.751,287.533 337.771,287.666 337.704,287.826 L336.918,289.471 C336.832,289.631 336.692,289.671 336.539,289.585 C335.46,288.952 334.128,288.499 332.782,288.499 C331.77,288.499 331.024,288.725 330.578,289.111 C330.151,289.451 329.925,289.897 329.925,290.464 C329.925,291.449 330.758,291.968 332.016,292.395 C333.455,292.915 335.073,293.161 336.399,294.02 C337.438,294.673 338.29,295.732 338.29,297.397 C338.29,298.909 337.664,300.075 336.625,300.887 C335.64,301.679 334.221,302.08 332.603,302.08 C330.171,302.08 328.42,301.34 327.294,300.64" id="Fill-20"></path>
            <path d="M344.273,300.64 C344.112,300.548 344.072,300.414 344.159,300.261 L344.945,298.59 C345.019,298.456 345.125,298.389 345.305,298.503 C346.297,299.109 347.643,299.922 349.554,299.922 C350.5,299.922 351.219,299.695 351.692,299.336 C352.279,298.909 352.525,298.276 352.525,297.596 C352.525,296.564 351.692,295.978 350.593,295.552 C349.308,295.033 347.802,294.786 346.364,293.973 C345.125,293.274 344.252,292.308 344.252,290.577 C344.252,289.311 344.745,288.232 345.711,287.486 C346.657,286.747 348.049,286.314 349.894,286.314 C351.985,286.314 353.557,286.881 354.57,287.446 C354.729,287.533 354.75,287.666 354.683,287.826 L353.897,289.471 C353.81,289.631 353.67,289.671 353.517,289.585 C352.438,288.952 351.106,288.499 349.761,288.499 C348.748,288.499 348.003,288.725 347.556,289.111 C347.13,289.451 346.903,289.897 346.903,290.464 C346.903,291.449 347.736,291.968 348.995,292.395 C350.433,292.915 352.052,293.161 353.377,294.02 C354.416,294.673 355.269,295.732 355.269,297.397 C355.269,298.909 354.636,300.075 353.604,300.887 C352.618,301.679 351.199,302.08 349.581,302.08 C347.15,302.08 345.398,301.34 344.273,300.64" id="Fill-21"></path>
            <path d="M369.21,302.082 C364.8,302.082 361.111,298.772 361.111,294.222 C361.111,289.654 364.8,286.317 369.21,286.317 C373.592,286.317 377.302,289.654 377.302,294.222 C377.302,298.792 373.592,302.082 369.21,302.082 M369.21,288.681 C366.126,288.681 363.768,291.138 363.768,294.222 C363.768,297.306 366.126,299.738 369.21,299.738 C372.287,299.738 374.632,297.306 374.632,294.222 C374.632,291.138 372.287,288.681 369.21,288.681" id="Fill-22"></path>
            <path d="M395.249,286.812 C395.249,286.652 395.362,286.519 395.515,286.519 L397.36,286.519 C397.519,286.519 397.653,286.652 397.653,286.812 L397.653,301.585 C397.653,301.745 397.519,301.858 397.36,301.858 L395.608,301.858 C395.382,301.858 395.268,301.811 395.115,301.565 L386.59,290.688 L386.59,301.585 C386.59,301.745 386.477,301.858 386.323,301.858 L384.452,301.858 C384.319,301.858 384.185,301.745 384.185,301.585 L384.185,286.812 C384.185,286.652 384.319,286.519 384.452,286.519 L386.21,286.519 C386.436,286.519 386.543,286.586 386.723,286.812 L395.249,297.716 L395.249,286.812" id="Fill-23"></path>
            <path d="M461.079,232.319 C461.079,230.421 462.458,229.015 464.303,229.015 C466.181,229.015 467.507,230.374 467.507,232.293 C467.507,234.177 466.128,235.59 464.29,235.59 C462.411,235.59 461.079,234.23 461.079,232.319 M466.981,232.312 C466.981,230.687 465.828,229.482 464.277,229.482 C462.704,229.482 461.612,230.633 461.612,232.299 C461.612,233.918 462.758,235.123 464.31,235.123 C465.888,235.123 466.981,233.97 466.981,232.312 M464.936,233.778 L464.076,232.699 L463.65,232.699 L463.65,233.724 C463.65,233.884 463.564,233.998 463.397,233.998 L463.318,233.998 C463.151,233.998 463.064,233.878 463.064,233.677 L463.064,230.921 C463.064,230.72 463.191,230.588 463.377,230.588 L464.416,230.588 C465.255,230.588 465.728,230.933 465.728,231.639 C465.728,232.232 465.355,232.598 464.709,232.659 L465.655,233.745 C465.688,233.784 465.555,233.998 465.335,233.998 C465.229,233.998 465.062,233.944 464.936,233.778 M463.637,232.206 L464.429,232.206 C464.889,232.206 465.142,231.993 465.142,231.653 C465.142,231.266 464.876,231.093 464.396,231.093 L463.637,231.093 L463.637,232.206" id="Fill-24"></path>
            <path d="M148.266,251.793 L148.266,231.085 C148.266,229.939 148.825,229.346 149.891,229.346 L150.41,229.346 C151.516,229.346 152.069,229.939 152.069,231.085 L152.069,251.793 C152.069,252.938 151.516,253.524 150.41,253.524 L149.891,253.524 C148.825,253.524 148.266,252.938 148.266,251.793" id="Fill-25"></path>
            <path d="M166.703,251.793 L166.703,231.491 C166.703,230.199 167.329,229.346 168.508,229.346 L169.14,229.346 C170.279,229.346 170.718,229.826 171.425,230.785 L183.22,247.549 L183.22,231.085 C183.22,229.939 183.7,229.346 184.805,229.346 L185.245,229.346 C186.278,229.346 186.797,229.939 186.797,231.085 L186.797,251.385 C186.797,252.712 186.131,253.524 185.026,253.524 L184.732,253.524 C183.587,253.524 183.294,253.191 182.707,252.379 L170.279,234.775 L170.279,251.793 C170.279,252.938 169.766,253.524 168.654,253.524 L168.248,253.524 C167.175,253.524 166.703,252.938 166.703,251.793" id="Fill-26"></path>
            <path d="M201.071,251.793 L201.071,231.491 C201.071,230.199 201.697,229.346 202.876,229.346 L203.495,229.346 C204.64,229.346 205.087,229.826 205.786,230.785 L217.589,247.549 L217.589,231.085 C217.589,229.939 218.061,229.346 219.167,229.346 L219.607,229.346 C220.639,229.346 221.159,229.939 221.159,231.085 L221.159,251.385 C221.159,252.712 220.492,253.524 219.387,253.524 L219.094,253.524 C217.955,253.524 217.662,253.191 217.062,252.379 L204.64,234.775 L204.64,251.793 C204.64,252.938 204.121,253.524 203.022,253.524 L202.609,253.524 C201.544,253.524 201.071,252.938 201.071,251.793" id="Fill-27"></path>
            <path d="M246.893,246.664 C246.893,243.154 249.177,240.942 252.867,239.797 C251.681,238.505 250.762,236.913 250.762,234.962 C250.762,231.637 253.453,229.013 257.436,229.013 C261.046,229.013 263.624,231.371 263.624,234.622 C263.624,237.432 261.639,239.39 258.062,240.463 L263.67,245.478 C264.469,244.046 264.996,242.454 265.468,240.642 C265.915,239.091 266.581,238.578 267.573,238.578 C268.679,238.578 269.232,239.464 269.192,239.61 C268.532,242.601 267.393,245.292 265.875,247.509 L270.89,252.018 C271.004,252.091 270.484,253.564 268.865,253.564 C268.239,253.564 267.393,253.418 266.467,252.459 L263.917,250.02 C261.712,252.459 258.875,253.857 255.518,253.857 C250.356,253.857 246.893,251.279 246.893,246.664 M261.785,248.029 L254.632,241.561 C252.121,242.375 250.436,243.82 250.436,246.371 C250.436,249.281 252.64,250.979 255.778,250.979 C258.169,250.979 260.234,249.794 261.785,248.029 M256.104,238.831 C259.134,237.985 260.493,236.773 260.493,234.815 C260.493,233.076 259.208,231.744 257.396,231.744 C255.298,231.744 254.186,233.189 254.186,234.962 C254.186,236.507 254.892,237.652 256.104,238.831" id="Fill-28"></path>
            <path d="M296.591,249.1 C296.591,247.841 298.216,246.916 298.323,247.069 C299.689,249.061 302.233,250.726 305.516,250.726 C308.833,250.726 310.712,249.354 310.712,246.989 C310.712,244.299 307.914,243.679 304.744,242.933 C301.054,242.088 297.224,240.789 297.224,235.946 C297.224,231.897 300.728,229.012 305.81,229.012 C311.124,229.012 313.995,231.524 313.995,233.262 C313.995,234.621 312.303,235.466 312.23,235.36 C310.971,233.555 308.614,232.15 305.849,232.15 C302.865,232.15 300.907,233.595 300.907,235.806 C300.907,238.424 303.232,238.831 306.549,239.61 C310.605,240.536 314.515,242.114 314.515,246.736 C314.515,251.126 311.124,253.856 305.55,253.856 C299.802,253.856 296.591,251.052 296.591,249.1" id="Fill-29"></path>
            <path d="M327.308,243.676 L327.308,231.082 C327.308,229.936 327.901,229.35 328.932,229.35 L329.445,229.35 C330.551,229.35 331.104,229.936 331.104,231.082 L331.104,243.556 C331.104,248.099 333.095,250.464 337.039,250.464 C341.061,250.464 342.973,248.173 342.973,243.523 L342.973,231.082 C342.973,229.903 343.532,229.35 344.598,229.35 L345.184,229.35 C346.257,229.35 346.776,229.903 346.776,231.082 L346.776,243.596 C346.776,250.237 343.346,253.82 337.005,253.82 C330.664,253.82 327.308,250.317 327.308,243.676" id="Fill-30"></path>
            <path d="M361.116,251.793 L361.116,231.085 C361.116,229.939 361.669,229.346 362.741,229.346 L363.254,229.346 C364.36,229.346 364.912,229.939 364.912,231.085 L364.912,251.793 C364.912,252.938 364.36,253.524 363.254,253.524 L362.741,253.524 C361.669,253.524 361.116,252.938 361.116,251.793" id="Fill-31"></path>
            <path d="M377.746,231.27 L377.746,231.084 C377.746,230.046 378.373,229.492 379.518,229.492 L396.402,229.492 C397.541,229.492 398.128,230.046 398.128,231.084 L398.128,231.27 C398.128,232.303 397.541,232.889 396.402,232.889 L389.875,232.889 L389.875,251.792 C389.875,252.937 389.282,253.523 388.176,253.523 L387.664,253.523 C386.591,253.523 386.039,252.937 386.039,251.792 L386.039,232.889 L379.518,232.889 C378.373,232.889 377.746,232.303 377.746,231.27" id="Fill-32"></path>
            <path d="M410.629,251.277 L410.629,231.635 C410.629,230.35 411.448,229.498 412.66,229.498 L426.487,229.498 C427.666,229.498 428.259,230.084 428.259,231.083 L428.259,231.302 C428.259,232.335 427.666,232.887 426.487,232.887 L414.432,232.887 L414.432,239.568 L423.756,239.568 C424.975,239.568 425.529,240.088 425.529,241.087 L425.529,241.193 C425.529,242.232 424.935,242.785 423.756,242.785 L414.432,242.785 L414.432,250.025 L426.707,250.025 C427.886,250.025 428.439,250.538 428.439,251.537 L428.439,251.716 C428.439,252.796 427.886,253.383 426.707,253.383 L412.66,253.383 C411.448,253.383 410.629,252.569 410.629,251.277" id="Fill-33"></path>
            <path d="M440.13,249.1 C440.13,247.841 441.755,246.916 441.868,247.069 C443.227,249.061 445.771,250.726 449.054,250.726 C452.371,250.726 454.25,249.354 454.25,246.989 C454.25,244.299 451.452,243.679 448.282,242.933 C444.592,242.088 440.756,240.789 440.756,235.946 C440.756,231.897 444.266,229.012 449.354,229.012 C454.656,229.012 457.527,231.524 457.527,233.262 C457.527,234.621 455.835,235.466 455.762,235.36 C454.509,233.555 452.152,232.15 449.381,232.15 C446.397,232.15 444.445,233.595 444.445,235.806 C444.445,238.424 446.763,238.831 450.08,239.61 C454.143,240.536 458.046,242.114 458.046,246.736 C458.046,251.126 454.656,253.856 449.088,253.856 C443.333,253.856 440.13,251.052 440.13,249.1" id="Fill-34"></path>
        </g>
    </g>
</svg>